<svg version="1.1" id="Layer_1" xmlns="http://www.w3.org/2000/svg" xmlns:xlink="http://www.w3.org/1999/xlink" x="0px" y="0px"
	 width="100%" viewBox="0 0 200 200" enable-background="new 0 0 200 200" xml:space="preserve">
<path fill="#FEFFFF" opacity="1.000000" stroke="none" 
	d="
M141.000000,201.000000 
	C94.000000,201.000000 47.500004,201.000000 1.000006,201.000000 
	C1.000004,134.333344 1.000004,67.666679 1.000002,1.000015 
	C67.666656,1.000010 134.333313,1.000010 200.999969,1.000005 
	C200.999985,67.666649 200.999985,134.333298 201.000000,200.999969 
	C181.166672,201.000000 161.333328,201.000000 141.000000,201.000000 
M119.678780,97.872353 
	C127.998062,98.198151 136.322311,98.441338 144.631165,98.940704 
	C145.847931,99.013832 146.991425,100.306274 148.168823,101.034531 
	C146.966187,101.758308 145.816711,102.993752 144.552551,103.125053 
	C134.293365,104.190575 123.945442,104.586487 113.752739,106.068207 
	C93.231186,109.051437 73.907486,115.389542 57.474648,128.679367 
	C45.873283,138.061829 37.549980,149.864853 31.559376,163.740768 
	C32.575729,164.050842 33.187664,164.399704 33.800327,164.400986 
	C56.285549,164.447998 78.771202,164.511475 101.255081,164.343414 
	C102.424438,164.334686 104.085434,162.526169 104.642860,161.190491 
	C106.171547,157.527649 106.875427,153.503647 108.541336,149.917877 
	C116.291588,133.236084 129.530502,122.836777 146.713638,116.948616 
	C152.515915,114.960365 158.414246,112.944496 163.762924,110.017174 
	C170.687378,106.227417 171.245956,97.981819 165.225189,92.874725 
	C162.737396,90.764458 159.587524,89.410416 156.673035,87.833992 
	C153.457611,86.094788 150.008499,84.742157 146.943909,82.779640 
	C141.682602,79.410362 139.868515,74.845596 142.036499,69.038429 
	C143.639923,64.743523 145.869827,60.498001 148.654984,56.871231 
	C153.022324,51.184193 158.093597,46.037731 162.866180,40.662949 
	C162.625031,40.526031 162.367981,40.252483 162.110504,40.252079 
	C142.289841,40.221058 122.468880,40.164913 102.648994,40.285667 
	C101.001091,40.295708 98.767067,41.042641 97.815529,42.245991 
	C92.687775,48.730736 86.871338,54.956482 83.180824,62.229736 
	C76.520798,75.355301 81.261742,87.483093 94.983574,92.678131 
	C102.478134,95.515541 110.801933,96.162659 119.678780,97.872353 
z"/>
<path fill="#0574EF" opacity="1.000000" stroke="none" 
	d="
M119.215271,97.834946 
	C110.801933,96.162659 102.478134,95.515541 94.983574,92.678131 
	C81.261742,87.483093 76.520798,75.355301 83.180824,62.229736 
	C86.871338,54.956482 92.687775,48.730736 97.815529,42.245991 
	C98.767067,41.042641 101.001091,40.295708 102.648994,40.285667 
	C122.468880,40.164913 142.289841,40.221058 162.110504,40.252079 
	C162.367981,40.252483 162.625031,40.526031 162.866180,40.662949 
	C158.093597,46.037731 153.022324,51.184193 148.654984,56.871231 
	C145.869827,60.498001 143.639923,64.743523 142.036499,69.038429 
	C139.868515,74.845596 141.682602,79.410362 146.943909,82.779640 
	C150.008499,84.742157 153.457611,86.094788 156.673035,87.833992 
	C159.587524,89.410416 162.737396,90.764458 165.225189,92.874725 
	C171.245956,97.981819 170.687378,106.227417 163.762924,110.017174 
	C158.414246,112.944496 152.515915,114.960365 146.713638,116.948616 
	C129.530502,122.836777 116.291588,133.236084 108.541336,149.917877 
	C106.875427,153.503647 106.171547,157.527649 104.642860,161.190491 
	C104.085434,162.526169 102.424438,164.334686 101.255081,164.343414 
	C78.771202,164.511475 56.285549,164.447998 33.800327,164.400986 
	C33.187664,164.399704 32.575729,164.050842 31.559376,163.740768 
	C37.549980,149.864853 45.873283,138.061829 57.474648,128.679367 
	C73.907486,115.389542 93.231186,109.051437 113.752739,106.068207 
	C123.945442,104.586487 134.293365,104.190575 144.552551,103.125053 
	C145.816711,102.993752 146.966187,101.758308 148.168823,101.034531 
	C146.991425,100.306274 145.847931,99.013832 144.631165,98.940704 
	C136.322311,98.441338 127.998062,98.198151 119.215271,97.834946 
z"/>
</svg>